<svg xmlns="http://www.w3.org/2000/svg" viewBox="0 0 2368.07 571.19"><defs><style>.cls-1{fill:#fff;}.cls-2{fill:#414042;}</style></defs><title>Asset 4</title><g id="Layer_2" data-name="Layer 2"><g id="Layer_1-2" data-name="Layer 1"><path d="M307.51,571.19H263.86a6.36,6.36,0,0,0-1.66-.81c-13.73-2-27.68-3-41.15-6.06A285.11,285.11,0,0,1,95.28,499.13,286.33,286.33,0,0,1,22.94,398.84c-7.72-18.17-14-36.92-17.41-56.39a325.63,325.63,0,0,1-5-42.19c-.76-17.94-1.23-36,2.28-53.84,2.78-14.07,5.21-28.27,9-42.08a259.9,259.9,0,0,1,28-64.53c9.56-16,20.25-31.29,33-44.82,10.92-11.57,23-22.15,34.94-32.65,13.62-11.93,29-21.37,45-29.8A271.25,271.25,0,0,1,224.83,6.46c13.69-2.82,27.66-5.24,41.59-5.8,19.43-.79,39.05-1.59,58.36,2.22,14.2,2.8,28.5,5.33,42.47,9.08,19.77,5.3,38.46,13.49,56.44,23.38a273.19,273.19,0,0,1,52.6,37.34c10.56,9.63,20.14,20.41,29.63,31.13,12.9,14.58,23.36,30.92,32.49,48.07a277,277,0,0,1,22.32,56c4.15,14.92,7.43,30,8.72,45.48.29,3.53,1.06,7,1.61,10.55V307.6c-.83,5.8-1.39,11.64-2.53,17.37-2.84,14.19-5.34,28.5-9.09,42.46-5.29,19.77-13.51,38.44-23.39,56.43a273.44,273.44,0,0,1-37.33,52.58c-9.63,10.57-20.4,20.14-31.13,29.63-14.57,12.9-30.91,23.36-48,32.48a276.45,276.45,0,0,1-56,22.31c-14.92,4.15-30,7.43-45.47,8.72C314.52,569.87,311,570.64,307.51,571.19ZM280.57,127.6c-35.66-.49-76.15,14.23-106.94,45.17-34.15,34.3-49.2,76.49-45.72,124.71,5.79,80.38,74.86,143.9,152.74,143.84L211.29,320.19h146.4L287.94,441l.72,1.18c61.29-3.7,109.17-31.1,136.28-86.68,31.79-65.2,21.88-127.19-27.26-180.71-28.37-30.9-65.32-46.11-108.43-47.58l69.28,120H212.08Z"/><path class="cls-1" d="M281.88,2.77q-12.11,7-23.74,14.69t-22.83,16a498.22,498.22,0,0,0-42.67,35.63,545.9,545.9,0,0,0-38.73,39.74c-12.3,13.8-23.93,28.19-34.93,43s-21.15,30.29-30.73,46.09l-3.63,5.88-3.56,5.94c-2.45,3.91-4.73,7.93-7.12,11.87l-7.08,11.89-7,11.95q-14,23.93-27.28,48.39c-4.48,8.13-8.82,16.35-13.26,24.55S10.57,334.9,6,343.12l-1.49-.59a461,461,0,0,1,17.81-53.47,562.8,562.8,0,0,1,23.52-51.33A449.88,449.88,0,0,1,75,189.29c10.68-15.52,22.11-30.55,33.87-45.26S133,115.14,146.1,101.58a557.69,557.69,0,0,1,41.24-38.51A505.67,505.67,0,0,1,232.48,29.4q11.72-7.78,23.88-14.82T281.12,1.36Z"/><path class="cls-1" d="M273.38,248.79c3.95,5.37,7.53,11,11,16.62,1.72,2.82,3.42,5.73,5,8.57l2.38,4.41,2.3,4.42c1.49,3,3.3,5.82,4.92,8.76a31.44,31.44,0,0,1,3.42,9.33A51.28,51.28,0,0,1,303.4,311a36.72,36.72,0,0,1-1.63,10.86l-1.53.47a41.47,41.47,0,0,1-7.59-7.8,59.83,59.83,0,0,1-5.32-8.42,33.55,33.55,0,0,1-3.17-9.13c-.63-3.2-1.12-6.46-2-9.58l-2.56-9.38-2.55-9.49c-1.66-6.35-3.47-12.66-5.12-19.09Z"/><path class="cls-1" d="M319,390.55h0l0-.15c4.13,14.51,7.51,29.24,10.47,44.07q2.13,11.13,4,22.33c1.13,7.48,2.19,15,3.11,22.49l3,22.57a143.76,143.76,0,0,1,.89,22.72,202.22,202.22,0,0,1-2.13,22.72A133.29,133.29,0,0,1,333,569.83l-1.6-.05a196.91,196.91,0,0,1-4.46-22.52q-1.6-11.18-2.55-22.31a207.24,207.24,0,0,1-.72-22.29c.15-7.45.35-14.93.1-22.38s-.53-14.91-.93-22.36S322,443,321.5,435.53c-1-14.93-2.47-29.85-4.11-44.81v-.16H319Z"/><path class="cls-1" d="M242.1,196c-9.68-12.59-19.76-24.77-30.5-36.28q-8-8.67-16.47-16.83T177.89,127c-5.88-5.13-12.11-9.87-18.4-14.45s-12.37-9.38-18.32-14.39-11.91-10.07-17.86-15.27-11.88-10.5-17.63-16.41l.79-1.39a122.33,122.33,0,0,1,23,8.33A171.56,171.56,0,0,1,150.7,85.27a130.47,130.47,0,0,1,19,15.12c5.85,5.63,11.43,11.5,17,17.3s11,11.82,16.2,17.94,10.1,12.53,14.85,19a363.34,363.34,0,0,1,25.67,40.49Z"/><path class="cls-1" d="M547.09,171.93c-46.31,15.44-92.33,31.72-137.16,50.82l-16.85,7c-2.82,1.16-5.6,2.35-8.36,3.63l-8.32,3.76-16.62,7.51c-2.78,1.23-5.52,2.54-8.26,3.86l-8.22,3.94q-32.9,15.74-64.45,33.82A645.52,645.52,0,0,0,218.19,326L211,331.35c-2.39,1.83-4.8,3.63-7.16,5.48-4.77,3.66-9.45,7.42-14.1,11.2-2.35,1.87-4.63,3.82-6.94,5.72l-6.83,5.84q-6.81,5.85-13.35,12c-4.42,4-8.58,8.3-12.84,12.49l-6.18,6.47c-1.05,1.07-2,2.18-3,3.3l-3,3.32a305.57,305.57,0,0,0-22.17,28.06l-2.55,3.69-2.4,3.77c-.8,1.26-1.62,2.51-2.4,3.78s-1.53,2.57-2.29,3.85c-3.11,5.12-5.87,10.43-8.52,15.82a211.32,211.32,0,0,0-13,33.81l-1.57-.29a160.18,160.18,0,0,1,7.8-36.28L92,449l.8-2.21.88-2.16c1.17-2.89,2.31-5.8,3.64-8.63.64-1.42,1.27-2.85,1.94-4.26s1.41-2.79,2.12-4.18l2.14-4.17,2.29-4.09a245.69,245.69,0,0,1,20.85-31.14l2.91-3.68c1-1.23,1.94-2.45,3-3.62l6.09-7.12c4.22-4.58,8.4-9.22,12.82-13.63A386.5,386.5,0,0,1,209.07,313c20.55-13.8,41.9-26.19,63.54-37.88s43.79-22.37,66.22-32.3l8.43-3.67c2.81-1.23,5.62-2.46,8.47-3.59l17-7,8.51-3.48c2.82-1.18,5.69-2.29,8.56-3.35L407,215.31l17.21-6.39q8.64-3.07,17.32-6.06,17.36-6,34.82-11.55t35-10.84q17.58-5.19,35.25-10.07Z"/><path class="cls-1" d="M463.81,63.87q-5.9,10-11.47,20.24c-3.75,6.78-7.35,13.63-10.87,20.53-7,13.8-13.54,27.82-19.5,42.06s-11.51,28.62-16.44,43.2-9.36,29.32-13,44.19A425.17,425.17,0,0,0,384,279.21q-3.12,22.69-5.4,45.42c-1.53,15.17-2.48,30.43-3,45.77-.23,7.67-.33,15.37-.35,23.1s.12,15.5.14,23.34V417h-1.6v.13a250.05,250.05,0,0,1-9.5-46.21,311.71,311.71,0,0,1-1.7-47.34,287.09,287.09,0,0,1,5.75-47c3.25-15.46,7.29-30.72,11.77-45.76s9.64-29.92,15.37-44.52,12.21-28.86,19.17-42.87,14.49-27.69,22.44-41.1c4-6.69,8.06-13.34,12.28-19.89s8.59-13,13-19.37Z"/><path class="cls-1" d="M19.34,182.51a274.79,274.79,0,0,1,52.82-1q13.23,1,26.4,3.12T124.65,190c8.63,2.09,17.28,4.18,25.85,6.64a156.21,156.21,0,0,1,24.88,9.52,213.57,213.57,0,0,1,23.25,13,155.09,155.09,0,0,1,21.26,16.29l-.76,1.41c-8.77-2.11-17.12-4.8-25.4-7.51s-16.43-5.59-24.53-8.47c-4-1.45-8.07-2.94-12.06-4.5s-7.94-3.22-11.92-4.85c-7.9-3.36-15.89-6.59-24.06-9.25s-16.43-5.1-24.77-7.22-16.75-4.06-25.25-5.6a325.43,325.43,0,0,0-51.72-5.37Z"/><path class="cls-1" d="M500.44,476.33C488,464.17,475.7,452,463.17,440q-9.35-9-18.82-17.89t-18.93-17.71c-6.35-5.86-12.95-11.45-19.53-17S393,375.9,387,369.7s-11.88-12.54-17.6-19.09A223.92,223.92,0,0,1,353,330l1-1.23c16.05,7.9,30.41,18.07,43.88,29.19a195.78,195.78,0,0,1,19,18c5.91,6.44,11.68,13,17.59,19.4s11.76,12.86,17.54,19.37,11.4,13.17,17,19.81c11.15,13.37,22.1,26.88,32.63,40.73Z"/><path class="cls-1" d="M344.32,322.75c-8.89-5.7-17.66-11.5-26.53-17.11s-17.69-11.22-26.53-16.77c-2.21-1.38-4.48-2.68-6.76-3.95l-6.89-3.78a90.52,90.52,0,0,1-13-8.61c-4.08-3.25-8-6.69-11.85-10.4A93.5,93.5,0,0,1,242,249.82l.82-1.37a73.52,73.52,0,0,1,16,4.1,113,113,0,0,1,14.64,6.61,77,77,0,0,1,13.17,8.95l1.58,1.33.39.33.31.28.73.64,3,2.63c2,1.74,4,3.48,6.08,5.15q12.33,10,24,20.84c7.75,7.22,15.36,14.55,22.66,22.21Z"/><path class="cls-1" d="M46.87,130.92q6.08,7.72,12,15.55T70.56,162.3c7.68,10.6,15.15,21.46,22.44,32.33s14.34,22,21.25,33.18,13.5,22.54,20,34a5.58,5.58,0,0,1,.73,2.57v.36h0l-.73-2.93,10.37,18.47q5.19,9.24,10.27,18.55t9.71,18.85q4.62,9.54,8.69,19.33c5.42,13.06,10.39,26.3,14.74,39.77a367.5,367.5,0,0,1,11,41.07l-1.5.57c-7.22-12.27-13.73-24.74-20.17-37.21s-12.67-25-18.82-37.53q-4.6-9.41-9-18.91c-2.92-6.34-5.75-12.72-8.57-19.11s-5.69-12.77-8.64-19.1-6-12.62-9.13-18.88l-.15-.3a5.65,5.65,0,0,1-.59-2.64h0l.74,2.94c-5.81-11.65-11.83-23.2-18-34.69s-12.42-22.91-18.89-34.23S73.28,176.18,66.48,165s-13.77-22.2-20.91-33.16Z"/><path class="cls-1" d="M551.61,392.19q-12-10.31-24-20.71t-23.69-21q-23.58-21.17-46.68-42.89T411.8,263.31q-22.37-22.55-44-45.8c-14.4-15.54-28.74-31.16-42.68-47.17s-27.08-32.73-39.39-50.07a631.27,631.27,0,0,1-34.3-53.82c-5.23-9.27-10.11-18.75-14.74-28.33q-1.69-3.61-3.34-7.25c-1-2.46-2.1-4.9-3.1-7.37-2-4.92-4.05-9.83-6-14.78L225.76,8c3,4.4,5.85,8.84,8.69,13.27,1.44,2.21,2.82,4.45,4.22,6.67s2.91,4.38,4.39,6.55c5.83,8.75,11.87,17.34,17.94,25.88,12.17,17.07,24.76,33.81,37.6,50.36s25.78,33,38.76,49.51,26.2,32.84,40,48.71,27.84,31.56,42.13,47,28.73,30.8,43.41,45.91,29.45,30.17,44.45,45Q518.58,358,529.94,369t22.75,22Z"/><path class="cls-2" d="M715.11,164.52V371.44h-45V164.52Zm38.3,138.13H704V262.39h39.41q16.37,0,24.42-7.13t8-21.67q0-14.55-8-21.68t-24.42-7.13H704V164.52h49.4q21.09,0,36.77,8.67a61.87,61.87,0,0,1,24.42,24.18q8.74,15.52,8.74,36.22T814.6,269.8A61.8,61.8,0,0,1,790.18,294Q774.49,302.65,753.41,302.65Z"/><path class="cls-2" d="M941.85,231.63v40.54h-13.6q-18.32,0-28.73,8.95t-10.4,29.64v60.68H846.38V231.91h40.24L890,261.83h-3.89a41.47,41.47,0,0,1,12.63-23.07q9.85-9.09,26.78-9.09a76.14,76.14,0,0,1,7.91.42A61.39,61.39,0,0,1,941.85,231.63Z"/><path class="cls-2" d="M951.28,301.25q0-22.08,9.86-38.72a68.15,68.15,0,0,1,27.19-25.87q17.34-9.22,39.55-9.23t39.41,9.23a68.46,68.46,0,0,1,27.06,25.87q9.86,16.64,9.85,38.72t-9.85,38.59a68.71,68.71,0,0,1-27.06,25.72q-17.2,9.24-39.41,9.23t-39.55-9.23a68.4,68.4,0,0,1-27.19-25.72Q951.29,323.34,951.28,301.25Zm43-.28a38.56,38.56,0,0,0,4.3,18.6,30.74,30.74,0,0,0,11.8,12.3,37.47,37.47,0,0,0,35,0,29.82,29.82,0,0,0,11.65-12.3,39.58,39.58,0,0,0,4.17-18.6,38.71,38.71,0,0,0-4.17-18.45,30.09,30.09,0,0,0-11.65-12.17,37.47,37.47,0,0,0-35,0,31.05,31.05,0,0,0-11.8,12.17A37.71,37.71,0,0,0,994.3,301Z"/><path class="cls-2" d="M1171.64,371.44H1128.9V231.63h40l4.71,24-4.44-5q4.17-8.38,15-15.94t28-7.55q18.31,0,29.42,9.23A54.05,54.05,0,0,1,1258,260.43h-6.66a39.6,39.6,0,0,1,16.1-24.05q12.77-9.23,30.53-9.23,26.91,0,40.24,14.4T1351.48,280v91.44h-42.74V292q0-13.14-6.24-19.58T1286,266a26.67,26.67,0,0,0-11.65,2.66,20.85,20.85,0,0,0-9.16,9.22q-3.62,6.59-3.61,18.6v74.94h-42.74V292q0-13.14-6.1-19.44t-16.38-6.29a27.56,27.56,0,0,0-11.79,2.66,20.67,20.67,0,0,0-9.3,9.22q-3.62,6.58-3.61,18.32Z"/><path class="cls-2" d="M1369,231.63h95.47v35.79H1369Zm69.11,139.81h-42.74V188.29h42.74Z"/><path class="cls-2" d="M1474.7,301.25q0-22.08,9.86-38.72a68.15,68.15,0,0,1,27.19-25.87q17.34-9.22,39.55-9.23t39.41,9.23a68.46,68.46,0,0,1,27.06,25.87q9.86,16.64,9.85,38.72t-9.85,38.59a68.71,68.71,0,0,1-27.06,25.72q-17.2,9.24-39.41,9.23t-39.55-9.23a68.4,68.4,0,0,1-27.19-25.72Q1474.71,323.34,1474.7,301.25Zm43-.28a38.56,38.56,0,0,0,4.3,18.6,30.74,30.74,0,0,0,11.8,12.3,37.47,37.47,0,0,0,35,0,29.82,29.82,0,0,0,11.65-12.3,39.58,39.58,0,0,0,4.17-18.6,38.71,38.71,0,0,0-4.17-18.45,30.09,30.09,0,0,0-11.65-12.17,37.47,37.47,0,0,0-35,0,31.05,31.05,0,0,0-11.8,12.17A37.71,37.71,0,0,0,1517.72,301Z"/><path class="cls-2" d="M1652.32,438.54V231.63h40.24l2.22,17.05q5.84-9.78,18-15.65a61.22,61.22,0,0,1,26.92-5.88q19.42,0,34.14,8.67a60,60,0,0,1,23,24.75q8.33,16.08,8.33,38.73,0,22.08-7.63,39.28a61.81,61.81,0,0,1-22.21,27q-14.57,9.79-35.38,9.79a69.33,69.33,0,0,1-26.64-5q-12.23-5-18.32-12.86v81.08Zm43-137a38,38,0,0,0,4.3,18.32,30.47,30.47,0,0,0,11.93,12.3,35.09,35.09,0,0,0,17.63,4.33q10.26,0,17.62-4.47a30.36,30.36,0,0,0,11.38-12.3,43.1,43.1,0,0,0,0-36.35,30.45,30.45,0,0,0-11.38-12.31q-7.36-4.47-17.62-4.47a35.19,35.19,0,0,0-17.63,4.33,30.77,30.77,0,0,0-11.93,12.17A37.71,37.71,0,0,0,1695.34,301.53Z"/><path class="cls-2" d="M1894.33,375.07q-20.82,0-37-9.51a68.31,68.31,0,0,1-25.54-26.14q-9.3-16.64-9.29-38.17,0-21.81,9-38.44a66.7,66.7,0,0,1,25.11-26.15q16.1-9.49,36.91-9.51,21.93,0,37.75,9.09A61.7,61.7,0,0,1,1955.66,262q8.6,16.63,8.6,39.56v10.91l-119.33.56.55-26.57h76.32q0-11.18-7.49-17.75t-20.54-6.57q-10.82,0-17.62,4.19t-10.13,13q-3.33,8.81-3.33,22.51,0,19.57,7.91,28.94t24.56,9.37q12.21,0,20.26-4.2t10.27-11.74h39.13a54.36,54.36,0,0,1-22.76,37.05Q1922.92,375.07,1894.33,375.07Z"/><path class="cls-2" d="M2047.8,375.07q-20,0-34.69-8.95a60.56,60.56,0,0,1-22.9-25.3q-8.19-16.36-8.18-38.45,0-22.37,8.32-39.29a63,63,0,0,1,23.73-26.42q15.4-9.49,36.5-9.51a61.67,61.67,0,0,1,24.28,4.76q11.23,4.76,17.35,12.58V160.61h42.73V371.44H2094.7l-2.22-17.9q-5.55,9.51-17.62,15.52A59.85,59.85,0,0,1,2047.8,375.07Zm10.27-39.42a35.06,35.06,0,0,0,17.62-4.34,30.49,30.49,0,0,0,11.94-12.3,41.45,41.45,0,0,0,0-36.77,30.7,30.7,0,0,0-11.94-12.16,35.06,35.06,0,0,0-17.62-4.34,33.61,33.61,0,0,0-17.49,4.47,30.09,30.09,0,0,0-11.51,12.31,43,43,0,0,0,0,36.35,30,30,0,0,0,11.51,12.3A33.42,33.42,0,0,0,2058.07,335.65Z"/><path class="cls-2" d="M2188.23,209.82a23.52,23.52,0,0,1-17.35-7.13,23.9,23.9,0,0,1-7.07-17.48,23.41,23.41,0,0,1,7.07-17.33,23.75,23.75,0,0,1,17.35-7,24,24,0,0,1,24.15,24.33,23.87,23.87,0,0,1-7.08,17.48A23.2,23.2,0,0,1,2188.23,209.82Zm-21.09,161.62V231.63h42.74V371.44Z"/><path class="cls-2" d="M2284,375.07q-21.93,0-34.83-12.16t-12.91-32.58q0-19.29,13.18-30.76t38.16-13.42l38.86-3.07v-2.24a22.16,22.16,0,0,0-2.78-11.6,17.57,17.57,0,0,0-7.91-7,30.61,30.61,0,0,0-12.9-2.38q-13.6,0-20.68,5t-7.08,14.54h-35.52q0-15.93,8-27.68t22.9-18.17q14.83-6.43,34.55-6.44,20.25,0,34.27,7.27a49.29,49.29,0,0,1,21.37,21.25q7.35,14,7.36,34.12v81.65h-37.75L2327.55,353q-3.33,9.51-15.68,15.8A60.64,60.64,0,0,1,2284,375.07Zm15-31.88q12.21,0,20-6t7.78-18V311.6l-21.65,2q-13.89,1.11-19.57,4.61a11.27,11.27,0,0,0-5.69,10.21q0,7.55,4.72,11.18T2299,343.19Z"/></g></g></svg>