<svg xmlns="http://www.w3.org/2000/svg" viewBox="0 0 571.06 571.78"><defs><style>.cls-1{fill:#fff;}</style></defs><title>Asset 3</title><g id="Layer_2" data-name="Layer 2"><g id="Layer_1-2" data-name="Layer 1"><path d="M307.51,571.78H263.86a6.06,6.06,0,0,0-1.66-.81c-13.73-2-27.68-3-41.15-6.06A285.11,285.11,0,0,1,95.28,499.72,286.33,286.33,0,0,1,22.94,399.43c-7.72-18.17-14-36.92-17.41-56.39a326,326,0,0,1-5-42.19c-.76-18-1.23-36,2.28-53.84,2.78-14.08,5.21-28.27,9-42.08a259.74,259.74,0,0,1,28-64.53c9.56-16,20.25-31.3,33-44.82,10.92-11.58,23-22.15,34.94-32.65,13.62-11.93,29-21.38,45-29.81A271.23,271.23,0,0,1,224.83,7.05c13.69-2.82,27.66-5.24,41.59-5.81,19.43-.79,39.05-1.58,58.36,2.23,14.2,2.8,28.5,5.33,42.47,9.07C387,17.85,405.71,26,423.69,35.93a272.76,272.76,0,0,1,52.6,37.34c10.56,9.63,20.14,20.4,29.63,31.13,12.9,14.57,23.36,30.92,32.49,48.07a276.92,276.92,0,0,1,22.32,56c4.15,14.92,7.43,30,8.72,45.48.29,3.54,1.06,7,1.61,10.56v43.65c-.83,5.79-1.39,11.64-2.53,17.37-2.84,14.19-5.34,28.49-9.09,42.45-5.29,19.78-13.51,38.45-23.39,56.43A273.51,273.51,0,0,1,498.72,477c-9.63,10.56-20.4,20.14-31.13,29.63-14.57,12.89-30.91,23.36-48,32.48a277,277,0,0,1-56,22.31c-14.92,4.14-30,7.43-45.47,8.71C314.52,570.46,311,571.23,307.51,571.78Zm-26.94-443.6c-35.66-.49-76.15,14.23-106.94,45.17-34.15,34.31-49.2,76.49-45.72,124.72,5.79,80.37,74.86,143.9,152.74,143.84-23.15-40.43-46.16-80.63-69.36-121.13h146.4l-69.75,120.8.72,1.17c61.29-3.69,109.17-31.09,136.28-86.68,31.79-65.2,21.88-127.18-27.26-180.7-28.37-30.9-65.32-46.11-108.43-47.58,23.35,40.43,46.18,80,69.28,120H212.08Z"/><path class="cls-1" d="M281.88,1.41q-12.11,7-23.74,14.69t-22.83,16a498.22,498.22,0,0,0-42.67,35.63,545.9,545.9,0,0,0-38.73,39.74c-12.3,13.8-23.93,28.19-34.93,43s-21.15,30.29-30.73,46.09l-3.63,5.89-3.56,5.93c-2.45,3.91-4.73,7.93-7.12,11.87l-7.08,11.89-7,12Q45.88,268,32.56,292.5c-4.48,8.14-8.82,16.35-13.26,24.56S10.57,333.54,6,341.76l-1.49-.59A461,461,0,0,1,22.32,287.7a562.8,562.8,0,0,1,23.52-51.33A449.88,449.88,0,0,1,75,187.93c10.68-15.52,22.11-30.55,33.87-45.26S133,113.78,146.1,100.22a559.84,559.84,0,0,1,41.24-38.51A505.67,505.67,0,0,1,232.48,28q11.72-7.78,23.88-14.82T281.12,0Z"/><path class="cls-1" d="M273.38,247.43c3.95,5.37,7.53,11,11,16.62,1.72,2.82,3.42,5.73,5,8.57l2.38,4.41,2.3,4.43c1.49,3,3.3,5.81,4.92,8.75a31.44,31.44,0,0,1,3.42,9.33,51.28,51.28,0,0,1,.95,10.14,36.72,36.72,0,0,1-1.63,10.86l-1.53.47a41.47,41.47,0,0,1-7.59-7.8,59.26,59.26,0,0,1-5.32-8.42,33.55,33.55,0,0,1-3.17-9.13c-.63-3.19-1.12-6.46-2-9.58l-2.56-9.37-2.55-9.5c-1.66-6.35-3.47-12.66-5.12-19.09Z"/><path class="cls-1" d="M319,389.2h0l0-.16c4.13,14.51,7.51,29.24,10.47,44.07q2.13,11.13,4,22.33c1.13,7.48,2.19,15,3.11,22.49l3,22.58a143.58,143.58,0,0,1,.89,22.71A202,202,0,0,1,338.24,546,133.06,133.06,0,0,1,333,568.47l-1.6-.05a195,195,0,0,1-4.46-22.51q-1.6-11.19-2.55-22.32a207.24,207.24,0,0,1-.72-22.29c.15-7.45.35-14.92.1-22.38s-.53-14.9-.93-22.36-.79-14.92-1.33-22.39c-1-14.93-2.47-29.85-4.11-44.81v-.15H319Z"/><path class="cls-1" d="M242.1,194.62c-9.68-12.59-19.76-24.77-30.5-36.28q-8-8.67-16.47-16.82T177.89,125.6c-5.88-5.13-12.11-9.87-18.4-14.45s-12.37-9.38-18.32-14.39-11.91-10.07-17.86-15.27S111.43,71,105.68,65.08l.79-1.39a122.33,122.33,0,0,1,23,8.33A172.87,172.87,0,0,1,150.7,83.91a131.15,131.15,0,0,1,19,15.12c5.85,5.63,11.43,11.5,17,17.3s11,11.82,16.2,17.94,10.1,12.53,14.85,19a363.34,363.34,0,0,1,25.67,40.49Z"/><path class="cls-1" d="M547.09,170.57C500.78,186,454.76,202.3,409.93,221.39l-16.85,7c-2.82,1.17-5.6,2.36-8.36,3.63l-8.32,3.76-16.62,7.51c-2.78,1.23-5.52,2.54-8.26,3.86l-8.22,3.94Q310.4,266.87,278.85,285a645.52,645.52,0,0,0-60.66,39.65L211,330c-2.39,1.83-4.8,3.63-7.16,5.49-4.77,3.65-9.45,7.41-14.1,11.2-2.35,1.86-4.63,3.81-6.94,5.71l-6.83,5.84q-6.81,5.85-13.35,12c-4.42,4-8.58,8.3-12.84,12.49l-6.18,6.47c-1.05,1.07-2,2.18-3,3.3l-3,3.32a305.57,305.57,0,0,0-22.17,28.06l-2.55,3.69-2.4,3.77c-.8,1.26-1.62,2.51-2.4,3.79s-1.53,2.56-2.29,3.85c-3.11,5.11-5.87,10.42-8.52,15.81a211.69,211.69,0,0,0-13,33.81l-1.57-.29A160.3,160.3,0,0,1,90.43,452l1.57-4.4.8-2.2.88-2.17c1.17-2.89,2.31-5.8,3.64-8.63.64-1.42,1.27-2.85,1.94-4.26s1.41-2.79,2.12-4.18l2.14-4.17,2.29-4.09a245.69,245.69,0,0,1,20.85-31.14l2.91-3.68c1-1.22,1.94-2.44,3-3.62l6.09-7.11c4.22-4.59,8.4-9.23,12.82-13.64a386.5,386.5,0,0,1,57.62-47.07c20.55-13.8,41.9-26.18,63.54-37.87s43.79-22.38,66.22-32.31l8.43-3.67c2.81-1.23,5.62-2.45,8.47-3.59l17-7,8.51-3.48c2.82-1.18,5.69-2.29,8.56-3.35L407,214l17.21-6.39q8.64-3.08,17.32-6.06,17.36-6,34.82-11.55t35-10.84Q529,173.92,546.63,169Z"/><path class="cls-1" d="M463.81,62.51q-5.9,10-11.47,20.24c-3.75,6.78-7.35,13.64-10.87,20.53-7,13.8-13.54,27.82-19.5,42.06s-11.51,28.62-16.44,43.2-9.36,29.32-13,44.19A425.17,425.17,0,0,0,384,277.85q-3.12,22.69-5.4,45.42c-1.53,15.17-2.48,30.43-3,45.77-.23,7.68-.33,15.37-.35,23.11s.12,15.49.14,23.33v.13h-1.6v.12a249.88,249.88,0,0,1-9.5-46.21,311.62,311.62,0,0,1-1.7-47.33,287.08,287.08,0,0,1,5.75-47c3.25-15.45,7.29-30.72,11.77-45.76s9.64-29.92,15.37-44.52S407.75,156,414.71,142s14.49-27.69,22.44-41.1c4-6.69,8.06-13.34,12.28-19.89s8.59-13,13-19.37Z"/><path class="cls-1" d="M19.34,181.16a274,274,0,0,1,52.82-1q13.23,1,26.4,3.12t26.09,5.31c8.63,2.09,17.28,4.18,25.85,6.64a157.18,157.18,0,0,1,24.88,9.52,215.26,215.26,0,0,1,23.25,13,155.09,155.09,0,0,1,21.26,16.29l-.76,1.41c-8.77-2.11-17.12-4.8-25.4-7.51s-16.43-5.59-24.53-8.47c-4-1.45-8.07-2.94-12.06-4.5s-7.94-3.22-11.92-4.85c-7.9-3.36-15.89-6.59-24.06-9.25s-16.43-5.1-24.77-7.21-16.75-4.07-25.25-5.61a325.43,325.43,0,0,0-51.72-5.37Z"/><path class="cls-1" d="M500.44,475c-12.41-12.16-24.74-24.35-37.27-36.31q-9.35-9-18.82-17.88t-18.93-17.72c-6.35-5.86-12.95-11.45-19.53-17S393,374.54,387,368.34s-11.88-12.54-17.6-19.08A225.42,225.42,0,0,1,353,328.63l1-1.23c16.05,7.9,30.41,18.07,43.88,29.19a195.78,195.78,0,0,1,19,18c5.91,6.44,11.68,13,17.59,19.4s11.76,12.86,17.54,19.37,11.4,13.17,17,19.81c11.15,13.37,22.1,26.88,32.63,40.73Z"/><path class="cls-1" d="M344.32,321.39c-8.89-5.7-17.66-11.5-26.53-17.11s-17.69-11.22-26.53-16.76c-2.21-1.39-4.48-2.69-6.76-4l-6.89-3.78a90.52,90.52,0,0,1-13-8.61c-4.08-3.25-8-6.69-11.85-10.4A93.5,93.5,0,0,1,242,248.46l.82-1.37a73.52,73.52,0,0,1,16,4.1,114.37,114.37,0,0,1,14.64,6.61,77,77,0,0,1,13.17,8.95l1.58,1.33.39.34.31.27.73.64,3,2.63c2,1.74,4,3.48,6.08,5.15q12.33,10,24,20.84c7.75,7.22,15.36,14.55,22.66,22.21Z"/><path class="cls-1" d="M46.87,129.56q6.08,7.73,12,15.56t11.68,15.82c7.68,10.6,15.15,21.46,22.44,32.34s14.34,22,21.25,33.17,13.5,22.54,20,34A5.61,5.61,0,0,1,135,263v.37h0l-.73-2.94,10.37,18.47q5.19,9.24,10.27,18.55t9.71,18.85q4.62,9.54,8.69,19.33c5.42,13.06,10.39,26.3,14.74,39.77a367.5,367.5,0,0,1,11,41.07l-1.5.57c-7.22-12.27-13.73-24.74-20.17-37.21s-12.67-25-18.82-37.53q-4.6-9.41-9-18.91c-2.92-6.34-5.75-12.72-8.57-19.11s-5.69-12.76-8.64-19.1-6-12.62-9.13-18.88l-.15-.3a5.64,5.64,0,0,1-.59-2.63h0l.74,2.93c-5.81-11.65-11.83-23.2-18-34.69s-12.42-22.91-18.89-34.23-13.09-22.55-19.89-33.72-13.77-22.2-20.91-33.16Z"/><path class="cls-1" d="M551.61,390.83q-12-10.31-24-20.7T504,349.08q-23.58-21.15-46.68-42.89T411.8,262q-22.37-22.55-44-45.8C353.42,200.62,339.08,185,325.14,169s-27.08-32.73-39.39-50.07a631.27,631.27,0,0,1-34.3-53.82c-5.23-9.27-10.11-18.75-14.74-28.33q-1.69-3.61-3.34-7.25c-1-2.46-2.1-4.9-3.1-7.37-2-4.92-4.05-9.83-6-14.78l1.44-.71c3,4.4,5.85,8.84,8.69,13.28,1.44,2.2,2.82,4.44,4.22,6.66s2.91,4.38,4.39,6.56C248.89,41.89,254.93,50.48,261,59c12.17,17.07,24.76,33.8,37.6,50.35s25.78,33,38.76,49.51,26.2,32.84,40,48.71,27.84,31.56,42.13,47,28.73,30.8,43.41,45.91,29.45,30.17,44.45,45q11.24,11.12,22.6,22.13t22.75,22Z"/></g></g></svg>